<svg width="280" height="76" viewBox="0 0 280 76" fill="none" xmlns="http://www.w3.org/2000/svg">
<path d="M266.295 0.519346C101.968 -0.17314 178.032 -0.173103 13.7049 0.519384C8.26959 0.542801 3.0806 4.20679 2.35468 8.70084C-0.784882 28.2335 -0.784882 47.7661 2.35468 67.2996C3.0806 71.7937 8.26959 75.4572 13.7049 75.4807C178.032 76.1731 101.968 76.1731 266.295 75.4806C271.73 75.4572 276.919 71.7936 277.644 67.2996C280.785 47.7661 280.785 28.2335 277.644 8.70081C276.919 4.20675 271.73 0.542764 266.295 0.519346Z" fill="url(#paint0_linear_2_567)"/>
<path d="M266.295 0.519346C101.968 -0.17314 178.032 -0.173103 13.7049 0.519384C8.26959 0.542801 3.0806 4.20679 2.35468 8.70084C-0.784882 28.2335 -0.784882 47.7661 2.35468 67.2996C3.0806 71.7937 8.26959 75.4572 13.7049 75.4807C178.032 76.1731 101.968 76.1731 266.295 75.4806C271.73 75.4572 276.919 71.7936 277.644 67.2996C280.785 47.7661 280.785 28.2335 277.644 8.70081C276.919 4.20675 271.73 0.542764 266.295 0.519346Z" fill="black" fill-opacity="0.06"/>
<defs>
<linearGradient id="paint0_linear_2_567" x1="44.7018" y1="-31.74" x2="279.843" y2="62.1732" gradientUnits="userSpaceOnUse">
<stop stop-color="#FFC87C"/>
<stop offset="1" stop-color="#FCB75B"/>
</linearGradient>
</defs>
</svg>
