<svg width="200" height="62" viewBox="0 0 200 62" fill="none" xmlns="http://www.w3.org/2000/svg">
<path d="M190.211 0.423677C72.8343 -0.141246 127.165 -0.141216 9.78918 0.423708C5.90685 0.442812 2.20042 3.43185 1.68192 7.09806C-0.560638 23.0326 -0.560638 38.9671 1.68192 54.9023C2.20042 58.5685 5.90685 61.5572 9.78918 61.5763C127.165 62.1413 72.8343 62.1412 190.211 61.5763C194.093 61.5572 197.799 58.5685 198.317 54.9023C200.561 38.9671 200.561 23.0326 198.317 7.09803C197.799 3.43182 194.093 0.442781 190.211 0.423677Z" fill="url(#paint0_linear_115_1595)"/>
<path d="M190.211 0.423677C72.8343 -0.141246 127.165 -0.141216 9.78918 0.423708C5.90685 0.442812 2.20042 3.43185 1.68192 7.09806C-0.560638 23.0326 -0.560638 38.9671 1.68192 54.9023C2.20042 58.5685 5.90685 61.5572 9.78918 61.5763C127.165 62.1413 72.8343 62.1412 190.211 61.5763C194.093 61.5572 197.799 58.5685 198.317 54.9023C200.561 38.9671 200.561 23.0326 198.317 7.09803C197.799 3.43182 194.093 0.442781 190.211 0.423677Z" fill="black" fill-opacity="0.06"/>
<defs>
<linearGradient id="paint0_linear_115_1595" x1="31.9298" y1="-25.8932" x2="205.459" y2="34.7894" gradientUnits="userSpaceOnUse">
<stop stop-color="#FFC87C"/>
<stop offset="1" stop-color="#FCB75B"/>
</linearGradient>
</defs>
</svg>
