<svg width="394" height="93" viewBox="0 0 394 93" fill="none" xmlns="http://www.w3.org/2000/svg">
<path d="M374.715 0.635516C143.484 -0.211869 250.516 -0.211823 19.2847 0.635562C11.6365 0.664217 4.33484 5.14778 3.31339 10.6471C-1.10443 34.5489 -1.10443 58.4507 3.31339 82.3535C4.33484 87.8528 11.6365 92.3358 19.2847 92.3645C250.516 93.2119 143.484 93.2118 374.715 92.3644C382.363 92.3358 389.665 87.8527 390.685 82.3534C395.105 58.4506 395.105 34.5488 390.685 10.647C389.665 5.14774 382.363 0.664171 374.715 0.635516Z" fill="url(#paint0_linear_2_39)"/>
<path d="M374.715 0.635516C143.484 -0.211869 250.516 -0.211823 19.2847 0.635562C11.6365 0.664217 4.33484 5.14778 3.31339 10.6471C-1.10443 34.5489 -1.10443 58.4507 3.31339 82.3535C4.33484 87.8528 11.6365 92.3358 19.2847 92.3645C250.516 93.2119 143.484 93.2118 374.715 92.3644C382.363 92.3358 389.665 87.8527 390.685 82.3534C395.105 58.4506 395.105 34.5488 390.685 10.647C389.665 5.14774 382.363 0.664171 374.715 0.635516Z" fill="black" fill-opacity="0.06"/>
<defs>
<linearGradient id="paint0_linear_2_39" x1="62.9018" y1="-38.8397" x2="379.73" y2="106.67" gradientUnits="userSpaceOnUse">
<stop stop-color="#FFC87C"/>
<stop offset="1" stop-color="#FCB75B"/>
</linearGradient>
</defs>
</svg>
