<svg width="394" height="93" viewBox="0 0 394 93" fill="none" xmlns="http://www.w3.org/2000/svg">
<g filter="url(#filter0_ii_2_40)">
<path d="M374.715 0.635516C143.484 -0.211869 250.516 -0.211823 19.2847 0.635562C11.6365 0.664217 4.33483 5.14778 3.31335 10.6471C-1.10447 34.5489 -1.10447 58.4507 3.31335 82.3535C4.33483 87.8528 11.6365 92.3358 19.2847 92.3645C250.516 93.2119 143.484 93.2118 374.715 92.3644C382.363 92.3358 389.665 87.8527 390.685 82.3534C395.105 58.4506 395.105 34.5488 390.685 10.647C389.665 5.14774 382.363 0.664171 374.715 0.635516Z" fill="url(#paint0_linear_2_40)"/>
</g>
<defs>
<filter id="filter0_ii_2_40" x="0" y="-1" width="401" height="101" filterUnits="userSpaceOnUse" color-interpolation-filters="sRGB">
<feFlood flood-opacity="0" result="BackgroundImageFix"/>
<feBlend mode="normal" in="SourceGraphic" in2="BackgroundImageFix" result="shape"/>
<feColorMatrix in="SourceAlpha" type="matrix" values="0 0 0 0 0 0 0 0 0 0 0 0 0 0 0 0 0 0 127 0" result="hardAlpha"/>
<feOffset dx="7" dy="7"/>
<feGaussianBlur stdDeviation="12.5"/>
<feComposite in2="hardAlpha" operator="arithmetic" k2="-1" k3="1"/>
<feColorMatrix type="matrix" values="0 0 0 0 1 0 0 0 0 1 0 0 0 0 1 0 0 0 0.25 0"/>
<feBlend mode="normal" in2="shape" result="effect1_innerShadow_2_40"/>
<feColorMatrix in="SourceAlpha" type="matrix" values="0 0 0 0 0 0 0 0 0 0 0 0 0 0 0 0 0 0 127 0" result="hardAlpha"/>
<feOffset dy="-1"/>
<feGaussianBlur stdDeviation="2"/>
<feComposite in2="hardAlpha" operator="arithmetic" k2="-1" k3="1"/>
<feColorMatrix type="matrix" values="0 0 0 0 1 0 0 0 0 1 0 0 0 0 1 0 0 0 0.25 0"/>
<feBlend mode="normal" in2="effect1_innerShadow_2_40" result="effect2_innerShadow_2_40"/>
</filter>
<linearGradient id="paint0_linear_2_40" x1="394" y1="46.5" x2="0.0374712" y2="38.7762" gradientUnits="userSpaceOnUse">
<stop stop-color="#FFD194"/>
<stop offset="0.232292" stop-color="#FEC87F"/>
<stop offset="0.691084" stop-color="#FFE0B5"/>
<stop offset="1" stop-color="#FFBC62"/>
</linearGradient>
</defs>
</svg>
