<svg width="350" height="86" viewBox="0 0 350 86" fill="none" xmlns="http://www.w3.org/2000/svg">
<g filter="url(#filter0_ii_2_615)">
<path d="M332.869 0.587681C127.46 -0.195922 222.54 -0.19588 17.1311 0.587724C10.337 0.614223 3.85074 4.76031 2.94336 9.84569C-0.98111 31.9484 -0.98111 54.0511 2.94336 76.1548C3.85074 81.2402 10.337 85.3858 17.1311 85.4123C222.54 86.1959 127.46 86.1959 332.869 85.4123C339.663 85.3858 346.149 81.2401 347.055 76.1548C350.982 54.0511 350.982 31.9484 347.055 9.84565C346.149 4.76027 339.663 0.61418 332.869 0.587681Z" fill="url(#paint0_linear_2_615)"/>
</g>
<defs>
<filter id="filter0_ii_2_615" x="0" y="-1" width="357" height="94" filterUnits="userSpaceOnUse" color-interpolation-filters="sRGB">
<feFlood flood-opacity="0" result="BackgroundImageFix"/>
<feBlend mode="normal" in="SourceGraphic" in2="BackgroundImageFix" result="shape"/>
<feColorMatrix in="SourceAlpha" type="matrix" values="0 0 0 0 0 0 0 0 0 0 0 0 0 0 0 0 0 0 127 0" result="hardAlpha"/>
<feOffset dx="7" dy="7"/>
<feGaussianBlur stdDeviation="12.5"/>
<feComposite in2="hardAlpha" operator="arithmetic" k2="-1" k3="1"/>
<feColorMatrix type="matrix" values="0 0 0 0 1 0 0 0 0 1 0 0 0 0 1 0 0 0 0.25 0"/>
<feBlend mode="normal" in2="shape" result="effect1_innerShadow_2_615"/>
<feColorMatrix in="SourceAlpha" type="matrix" values="0 0 0 0 0 0 0 0 0 0 0 0 0 0 0 0 0 0 127 0" result="hardAlpha"/>
<feOffset dy="-1"/>
<feGaussianBlur stdDeviation="2"/>
<feComposite in2="hardAlpha" operator="arithmetic" k2="-1" k3="1"/>
<feColorMatrix type="matrix" values="0 0 0 0 1 0 0 0 0 1 0 0 0 0 1 0 0 0 0.25 0"/>
<feBlend mode="normal" in2="effect1_innerShadow_2_615" result="effect2_innerShadow_2_615"/>
</filter>
<linearGradient id="paint0_linear_2_615" x1="350" y1="43" x2="0.0229069" y2="36.4087" gradientUnits="userSpaceOnUse">
<stop stop-color="#FFD194"/>
<stop offset="0.232292" stop-color="#FEC87F"/>
<stop offset="0.691084" stop-color="#FFE0B5"/>
<stop offset="1" stop-color="#FFBC62"/>
</linearGradient>
</defs>
</svg>
