<svg width="282" height="52" viewBox="0 0 282 52" fill="none" xmlns="http://www.w3.org/2000/svg">
<g opacity="0.3">
<path d="M200.988 12.9079H207.72V14.0419H200.988V18.8659H208.566V19.9999H199.656V7.3999H208.35V8.5339H200.988V12.9079Z" fill="white"/>
<path d="M213.162 14.4199L215.628 10.8559H217.05L213.9 15.2299L217.338 19.9999H215.88L213.162 16.0219L210.444 19.9999H209.004L212.442 15.2299L209.292 10.8559H210.696L213.162 14.4199Z" fill="white"/>
<path d="M225.274 16.7959H226.462C226.354 17.8879 225.958 18.7759 225.274 19.4599C224.902 19.8319 224.506 20.0719 224.086 20.1799C223.678 20.2999 223.192 20.3599 222.628 20.3599C221.356 20.3599 220.372 20.0239 219.676 19.3519C218.752 18.4639 218.29 17.1259 218.29 15.3379C218.29 13.7419 218.68 12.5239 219.46 11.6839C220.156 10.8919 221.188 10.4959 222.556 10.4959C223.756 10.4959 224.686 10.8139 225.346 11.4499C225.91 12.0139 226.252 12.7339 226.372 13.6099H225.184C225.124 13.0459 224.914 12.5659 224.554 12.1699C224.098 11.6539 223.462 11.3959 222.646 11.3959C221.794 11.3959 221.098 11.6659 220.558 12.2059C219.922 12.8419 219.604 13.8739 219.604 15.3019C219.604 16.8259 219.97 17.9539 220.702 18.6859C221.218 19.2019 221.866 19.4599 222.646 19.4599C223.426 19.4599 224.032 19.2319 224.464 18.7759C224.944 18.2599 225.214 17.5999 225.274 16.7959Z" fill="white"/>
<path d="M228.602 7.3999H229.844V19.9999H228.602V7.3999Z" fill="white"/>
<path d="M240.042 19.9999H238.8V18.6859H238.764C238.428 19.2379 238.032 19.6399 237.576 19.8919C237.072 20.2039 236.412 20.3599 235.596 20.3599C234.696 20.3599 233.988 20.1019 233.472 19.5859C232.944 19.0699 232.68 18.2179 232.68 17.0299V10.8559H233.922V16.5439C233.922 17.1439 233.958 17.6299 234.03 18.0019C234.102 18.3619 234.264 18.6679 234.516 18.9199C234.876 19.2799 235.356 19.4599 235.956 19.4599C236.748 19.4599 237.426 19.1719 237.99 18.5959C238.53 18.0199 238.8 17.1439 238.8 15.9679V10.8559H240.042V19.9999Z" fill="white"/>
<path d="M242.191 17.3359H243.451C243.451 17.9479 243.661 18.4519 244.081 18.8479C244.489 19.2559 245.149 19.4599 246.061 19.4599C246.805 19.4599 247.375 19.2979 247.771 18.9739C248.179 18.6379 248.383 18.1639 248.383 17.5519C248.383 17.1199 248.221 16.7659 247.897 16.4899C247.645 16.2619 247.141 16.0639 246.385 15.8959L245.377 15.6799C244.237 15.4159 243.493 15.1099 243.145 14.7619C242.737 14.3539 242.533 13.8259 242.533 13.1779C242.533 12.2779 242.911 11.5639 243.667 11.0359C244.219 10.6759 244.975 10.4959 245.935 10.4959C247.099 10.4959 247.999 10.7959 248.635 11.3959C249.139 11.8759 249.397 12.4879 249.409 13.2319H248.203C248.203 12.7039 248.035 12.2719 247.699 11.9359C247.315 11.5759 246.721 11.3959 245.917 11.3959C245.161 11.3959 244.603 11.5759 244.243 11.9359C243.967 12.2119 243.829 12.5839 243.829 13.0519C243.829 13.4719 243.985 13.8199 244.297 14.0959C244.561 14.3119 245.047 14.5099 245.755 14.6899L246.709 14.9059C246.769 14.9179 246.877 14.9479 247.033 14.9959C247.201 15.0319 247.315 15.0619 247.375 15.0859C247.447 15.0979 247.549 15.1279 247.681 15.1759C247.825 15.2119 247.939 15.2479 248.023 15.2839C248.107 15.3079 248.203 15.3439 248.311 15.3919C248.419 15.4279 248.515 15.4759 248.599 15.5359C248.695 15.5839 248.779 15.6379 248.851 15.6979C249.391 16.0939 249.661 16.6759 249.661 17.4439C249.661 18.4399 249.301 19.1959 248.581 19.7119C248.005 20.1439 247.147 20.3599 246.007 20.3599C244.699 20.3599 243.721 20.0359 243.073 19.3879C242.581 18.8599 242.287 18.1759 242.191 17.3359Z" fill="white"/>
<path d="M251.769 10.8559H253.011V19.9999H251.769V10.8559ZM251.751 8.9119V7.3999H253.029V8.9119H251.751Z" fill="white"/>
<path d="M258.513 18.7399L261.267 10.8559H262.635L259.233 19.9999H257.793L254.391 10.8559H255.741L258.513 18.7399Z" fill="white"/>
<path d="M270.753 17.3539H271.941C271.785 18.0979 271.455 18.7459 270.951 19.2979C270.267 20.0059 269.295 20.3599 268.035 20.3599C266.715 20.3599 265.683 20.0059 264.939 19.2979C264.039 18.4219 263.589 17.1199 263.589 15.3919C263.589 13.7359 264.009 12.4879 264.849 11.6479C265.617 10.8799 266.649 10.4959 267.945 10.4959C269.193 10.4959 270.165 10.8559 270.861 11.5759C271.317 12.0439 271.617 12.5959 271.761 13.2319C271.917 13.8679 272.013 14.6779 272.049 15.6619H264.885C264.933 16.9579 265.257 17.9239 265.857 18.5599C266.397 19.1599 267.141 19.4599 268.089 19.4599C268.869 19.4599 269.499 19.2319 269.979 18.7759C270.303 18.4879 270.561 18.0139 270.753 17.3539ZM267.927 11.3959C266.991 11.3959 266.259 11.6899 265.731 12.2779C265.167 12.9259 264.885 13.7539 264.885 14.7619H270.735C270.735 14.3419 270.657 13.8679 270.501 13.3399C270.345 12.8119 270.129 12.4099 269.853 12.1339C269.385 11.6419 268.743 11.3959 267.927 11.3959Z" fill="white"/>
<path d="M200.844 38.3819L199.494 41.9999H198.054L202.842 29.3999H204.336L209.124 41.9999H207.666L206.334 38.3819H200.844ZM201.222 37.2479H205.938L203.58 30.6779L201.222 37.2479Z" fill="white"/>
<path d="M215.354 32.6759V33.6839H215.174C214.094 33.6839 213.284 33.9719 212.744 34.5479C212.384 34.9079 212.144 35.3039 212.024 35.7359C211.904 36.1559 211.844 36.6719 211.844 37.2839V41.9999H210.602V32.8559H211.844V34.6739H211.88C212.108 34.0979 212.486 33.6239 213.014 33.2519C213.578 32.8679 214.292 32.6759 215.156 32.6759H215.354Z" fill="white"/>
<path d="M216.214 32.8559H217.924V30.1199H219.166V32.8559H221.128V33.7559H219.166V40.3799C219.166 40.6919 219.226 40.9199 219.346 41.0639C219.49 41.2199 219.73 41.2979 220.066 41.2979C220.39 41.2979 220.744 41.2319 221.128 41.0999V41.9999C220.696 42.1679 220.216 42.2519 219.688 42.2519C219.016 42.2519 218.56 42.1019 218.32 41.8019C218.056 41.5019 217.924 41.0339 217.924 40.3979V33.7559H216.214V32.8559Z" fill="white"/>
<path d="M222.622 37.9139V36.4919H227.374V37.9139H222.622Z" fill="white"/>
<path d="M231.627 34.9079H238.359V36.0419H231.627V40.8659H239.205V41.9999H230.295V29.3999H238.989V30.5339H231.627V34.9079Z" fill="white"/>
<path d="M243.765 40.7399L246.519 32.8559H247.887L244.485 41.9999H243.045L239.643 32.8559H240.993L243.765 40.7399Z" fill="white"/>
<path d="M256.005 39.3539H257.193C257.037 40.0979 256.707 40.7459 256.203 41.2979C255.519 42.0059 254.547 42.3599 253.287 42.3599C251.967 42.3599 250.935 42.0059 250.191 41.2979C249.291 40.4219 248.841 39.1199 248.841 37.3919C248.841 35.7359 249.261 34.4879 250.101 33.6479C250.869 32.8799 251.901 32.4959 253.197 32.4959C254.445 32.4959 255.417 32.8559 256.113 33.5759C256.569 34.0439 256.869 34.5959 257.013 35.2319C257.169 35.8679 257.265 36.6779 257.301 37.6619H250.137C250.185 38.9579 250.509 39.9239 251.109 40.5599C251.649 41.1599 252.393 41.4599 253.341 41.4599C254.121 41.4599 254.751 41.2319 255.231 40.7759C255.555 40.4879 255.813 40.0139 256.005 39.3539ZM253.179 33.3959C252.243 33.3959 251.511 33.6899 250.983 34.2779C250.419 34.9259 250.137 35.7539 250.137 36.7619H255.987C255.987 36.3419 255.909 35.8679 255.753 35.3399C255.597 34.8119 255.381 34.4099 255.105 34.1339C254.637 33.6419 253.995 33.3959 253.179 33.3959Z" fill="white"/>
<path d="M259.68 32.8559H260.922V34.1879C261.222 33.7079 261.642 33.3059 262.182 32.9819C262.746 32.6579 263.346 32.4959 263.982 32.4959C264.942 32.4959 265.686 32.7599 266.214 33.2879C266.766 33.8399 267.042 34.6859 267.042 35.8259V41.9999H265.8V36.0059C265.8 34.9499 265.578 34.2359 265.134 33.8639C264.762 33.5519 264.294 33.3959 263.73 33.3959C263.01 33.3959 262.386 33.6419 261.858 34.1339C261.234 34.7579 260.922 35.6759 260.922 36.8879V41.9999H259.68V32.8559Z" fill="white"/>
<path d="M268.579 32.8559H270.289V30.1199H271.531V32.8559H273.493V33.7559H271.531V40.3799C271.531 40.6919 271.591 40.9199 271.711 41.0639C271.855 41.2199 272.095 41.2979 272.431 41.2979C272.755 41.2979 273.109 41.2319 273.493 41.0999V41.9999C273.061 42.1679 272.581 42.2519 272.053 42.2519C271.381 42.2519 270.925 42.1019 270.685 41.8019C270.421 41.5019 270.289 41.0339 270.289 40.3979V33.7559H268.579V32.8559Z" fill="white"/>
<path d="M274.447 39.3359H275.707C275.707 39.9479 275.917 40.4519 276.337 40.8479C276.745 41.2559 277.405 41.4599 278.317 41.4599C279.061 41.4599 279.631 41.2979 280.027 40.9739C280.435 40.6379 280.639 40.1639 280.639 39.5519C280.639 39.1199 280.477 38.7659 280.153 38.4899C279.901 38.2619 279.397 38.0639 278.641 37.8959L277.633 37.6799C276.493 37.4159 275.749 37.1099 275.401 36.7619C274.993 36.3539 274.789 35.8259 274.789 35.1779C274.789 34.2779 275.167 33.5639 275.923 33.0359C276.475 32.6759 277.231 32.4959 278.191 32.4959C279.355 32.4959 280.255 32.7959 280.891 33.3959C281.395 33.8759 281.653 34.4879 281.665 35.2319H280.459C280.459 34.7039 280.291 34.2719 279.955 33.9359C279.571 33.5759 278.977 33.3959 278.173 33.3959C277.417 33.3959 276.859 33.5759 276.499 33.9359C276.223 34.2119 276.085 34.5839 276.085 35.0519C276.085 35.4719 276.241 35.8199 276.553 36.0959C276.817 36.3119 277.303 36.5099 278.011 36.6899L278.965 36.9059C279.025 36.9179 279.133 36.9479 279.289 36.9959C279.457 37.0319 279.571 37.0619 279.631 37.0859C279.703 37.0979 279.805 37.1279 279.937 37.1759C280.081 37.2119 280.195 37.2479 280.279 37.2839C280.363 37.3079 280.459 37.3439 280.567 37.3919C280.675 37.4279 280.771 37.4759 280.855 37.5359C280.951 37.5839 281.035 37.6379 281.107 37.6979C281.647 38.0939 281.917 38.6759 281.917 39.4439C281.917 40.4399 281.557 41.1959 280.837 41.7119C280.261 42.1439 279.403 42.3599 278.263 42.3599C276.955 42.3599 275.977 42.0359 275.329 41.3879C274.837 40.8599 274.543 40.1759 274.447 39.3359Z" fill="white"/>
</g>
<path d="M7.07834 24.3487C5.49279 24.3487 4.05825 23.9821 2.77471 23.2489C1.51005 22.5157 0.594581 21.5381 0.0283134 20.3161C0.00943779 20.2785 0 20.2221 0 20.1469C0 19.9213 0.0943778 19.7803 0.283134 19.7239L1.44398 19.2445C1.55723 19.2069 1.63274 19.1881 1.67049 19.1881C1.78374 19.1881 1.88756 19.2257 1.98194 19.3009C2.07631 19.3761 2.13294 19.4795 2.15182 19.6111C2.3972 20.6075 2.96346 21.4065 3.85062 22.0081C4.75664 22.5909 5.84199 22.8823 7.10665 22.8823C8.40907 22.8823 9.44722 22.5627 10.2211 21.9235C10.995 21.2655 11.382 20.3913 11.382 19.3009C11.382 18.3421 11.1555 17.5713 10.7024 16.9886C10.2494 16.387 9.67373 15.9264 8.97533 15.6068C8.29581 15.2684 7.3426 14.8924 6.11568 14.4788C4.85102 14.0464 3.81286 13.6328 3.00122 13.238C2.20844 12.8432 1.52892 12.2792 0.962654 11.546C0.415263 10.794 0.141567 9.8352 0.141567 8.66961C0.141567 7.54162 0.434138 6.53582 1.01928 5.65223C1.6233 4.74983 2.45382 4.04484 3.51086 3.53724C4.56789 3.02964 5.76649 2.77585 7.10665 2.77585C8.67332 2.77585 10.0607 3.14244 11.2687 3.87564C12.4956 4.59003 13.3733 5.55823 13.9019 6.78022C13.9207 6.81782 13.9302 6.86482 13.9302 6.92122C13.9302 7.10922 13.8358 7.25022 13.647 7.34422L12.4862 7.82361C12.4107 7.86121 12.3446 7.88001 12.288 7.88001C12.1747 7.88001 12.0709 7.84241 11.9765 7.76721C11.901 7.67321 11.8444 7.56041 11.8067 7.42881C11.5802 6.45122 11.0422 5.67103 10.1928 5.08823C9.34341 4.50543 8.31469 4.21404 7.10665 4.21404C5.82311 4.21404 4.78496 4.54303 3.99218 5.20103C3.19941 5.85903 2.80302 6.72382 2.80302 7.79541C2.80302 8.54741 3.00122 9.1678 3.3976 9.6566C3.79399 10.1266 4.30363 10.512 4.92652 10.8128C5.56829 11.1136 6.44601 11.452 7.55967 11.828C8.93758 12.298 10.0607 12.7586 10.929 13.2098C11.7972 13.661 12.5428 14.319 13.1657 15.1838C13.7886 16.0486 14.1 17.1578 14.1 18.5113C14.1 19.6205 13.798 20.6263 13.194 21.5287C12.59 22.4123 11.75 23.0985 10.6741 23.5873C9.6171 24.0949 8.4185 24.3487 7.07834 24.3487Z" fill="white"/>
<path d="M26.5949 23.8975C26.4627 23.8975 26.3495 23.8505 26.2551 23.7565C26.1796 23.6813 26.1419 23.5779 26.1419 23.4463V3.65004C26.1419 3.51844 26.1796 3.41504 26.2551 3.33984C26.3495 3.24584 26.4627 3.19884 26.5949 3.19884H40.525C40.6572 3.19884 40.761 3.24584 40.8365 3.33984C40.9309 3.41504 40.9781 3.51844 40.9781 3.65004V4.66523C40.9781 4.81563 40.9214 4.93783 40.8082 5.03183C40.7138 5.12583 40.5911 5.16343 40.4401 5.14463C37.5521 4.86263 33.7676 4.72163 29.0864 4.72163V12.7868C30.672 12.7868 31.9555 12.768 32.9371 12.7304C33.9375 12.6928 34.9756 12.6176 36.0515 12.5048H36.1082C36.2403 12.5048 36.3535 12.5518 36.4479 12.6458C36.5423 12.7398 36.5895 12.8526 36.5895 12.9842V14.1122C36.5895 14.2626 36.5329 14.3848 36.4196 14.4788C36.3252 14.5728 36.2025 14.6104 36.0515 14.5916C34.9756 14.4788 33.9375 14.4036 32.9371 14.366C31.9555 14.3284 30.672 14.3096 29.0864 14.3096V22.3747C33.7676 22.3747 37.5521 22.2337 40.4401 21.9517H40.4967C40.6289 21.9517 40.7421 21.9987 40.8365 22.0927C40.9309 22.1867 40.9781 22.2995 40.9781 22.4311V23.4463C40.9781 23.5779 40.9309 23.6813 40.8365 23.7565C40.761 23.8505 40.6572 23.8975 40.525 23.8975H26.5949Z" fill="white"/>
<path d="M53.5589 23.8975C53.4268 23.8975 53.3135 23.8505 53.2192 23.7565C53.1437 23.6813 53.1059 23.5779 53.1059 23.4463V3.65004C53.1059 3.51844 53.1437 3.41504 53.2192 3.33984C53.3135 3.24584 53.4268 3.19884 53.5589 3.19884H55.5975C55.7296 3.19884 55.8334 3.24584 55.9089 3.33984C56.0033 3.41504 56.0505 3.51844 56.0505 3.65004V22.3747C60.7316 22.3747 64.5162 22.2337 67.4041 21.9517H67.4608C67.5929 21.9517 67.7062 21.9987 67.8005 22.0927C67.8949 22.1867 67.9421 22.2995 67.9421 22.4311V23.4463C67.9421 23.5779 67.8949 23.6813 67.8005 23.7565C67.725 23.8505 67.6212 23.8975 67.4891 23.8975H53.5589Z" fill="white"/>
<path d="M79.6105 23.8975C79.4784 23.8975 79.3651 23.8505 79.2708 23.7565C79.1953 23.6813 79.1575 23.5779 79.1575 23.4463V3.65004C79.1575 3.51844 79.1953 3.41504 79.2708 3.33984C79.3651 3.24584 79.4784 3.19884 79.6105 3.19884H93.5407C93.6728 3.19884 93.7766 3.24584 93.8521 3.33984C93.9465 3.41504 93.9937 3.51844 93.9937 3.65004V4.66523C93.9937 4.81563 93.9371 4.93783 93.8238 5.03183C93.7294 5.12583 93.6068 5.16343 93.4557 5.14463C90.5678 4.86263 86.7832 4.72163 82.1021 4.72163V12.7868C83.6876 12.7868 84.9712 12.768 85.9527 12.7304C86.9531 12.6928 87.9913 12.6176 89.0672 12.5048H89.1238C89.2559 12.5048 89.3692 12.5518 89.4636 12.6458C89.5579 12.7398 89.6051 12.8526 89.6051 12.9842V14.1122C89.6051 14.2626 89.5485 14.3848 89.4352 14.4788C89.3409 14.5728 89.2182 14.6104 89.0672 14.5916C87.9913 14.4788 86.9531 14.4036 85.9527 14.366C84.9712 14.3284 83.6876 14.3096 82.1021 14.3096V22.3747C86.7832 22.3747 90.5678 22.2337 93.4557 21.9517H93.5124C93.6445 21.9517 93.7578 21.9987 93.8521 22.0927C93.9465 22.1867 93.9937 22.2995 93.9937 22.4311V23.4463C93.9937 23.5779 93.9465 23.6813 93.8521 23.7565C93.7766 23.8505 93.6728 23.8975 93.5407 23.8975H79.6105Z" fill="white"/>
<path d="M118.579 13.2944C119.787 13.7268 120.731 14.3754 121.411 15.2402C122.09 16.105 122.43 17.1108 122.43 18.2575C122.43 20.0059 121.807 21.3877 120.561 22.4029C119.316 23.3993 117.617 23.8975 115.465 23.8975H106.575C106.442 23.8975 106.329 23.8505 106.235 23.7565C106.159 23.6813 106.122 23.5779 106.122 23.4463V3.65004C106.122 3.51844 106.159 3.41504 106.235 3.33984C106.329 3.24584 106.442 3.19884 106.575 3.19884H114.219C116.503 3.21764 118.287 3.70644 119.57 4.66523C120.873 5.60523 121.524 6.90242 121.524 8.55681C121.524 9.572 121.269 10.4932 120.76 11.3204C120.25 12.1288 119.523 12.7868 118.579 13.2944ZM109.066 12.815H114.247C115.663 12.815 116.739 12.4484 117.475 11.7152C118.211 10.9632 118.579 9.8728 118.579 8.44401C118.579 7.14682 118.221 6.20682 117.504 5.62403C116.805 5.02243 115.691 4.72163 114.163 4.72163H109.066V12.815ZM115.437 22.3747C116.833 22.3747 117.862 22.0457 118.523 21.3877C119.183 20.7109 119.514 19.6675 119.514 18.2575C119.514 17.5431 119.325 16.8852 118.947 16.2836C118.589 15.6632 118.098 15.1744 117.475 14.8172C116.852 14.46 116.173 14.2814 115.437 14.2814H109.066V22.3747H115.437Z" fill="white"/>
<path d="M134.645 23.8975C134.512 23.8975 134.399 23.8505 134.305 23.7565C134.229 23.6813 134.192 23.5779 134.192 23.4463V3.65004C134.192 3.51844 134.229 3.41504 134.305 3.33984C134.399 3.24584 134.512 3.19884 134.645 3.19884H142.374C143.809 3.19884 145.064 3.46204 146.14 3.98844C147.235 4.49604 148.084 5.21983 148.688 6.15982C149.292 7.08102 149.594 8.15261 149.594 9.3746C149.594 10.8222 149.169 12.063 148.32 13.097C147.489 14.131 146.338 14.8454 144.866 15.2402L149.509 23.0515C149.566 23.1643 149.594 23.2677 149.594 23.3617C149.594 23.5121 149.537 23.6343 149.424 23.7283C149.33 23.8411 149.198 23.8975 149.028 23.8975H146.791C146.64 23.8975 146.527 23.8317 146.451 23.7001L141.61 15.5504H137.136V23.4463C137.136 23.5779 137.089 23.6813 136.995 23.7565C136.919 23.8505 136.815 23.8975 136.683 23.8975H134.645ZM142.318 14.0276C143.752 14.0276 144.837 13.6422 145.574 12.8714C146.31 12.0818 146.678 10.9162 146.678 9.3746C146.678 7.83301 146.31 6.67682 145.574 5.90603C144.837 5.11643 143.752 4.72163 142.318 4.72163H137.136V14.0276H142.318Z" fill="white"/>
<path d="M167.512 23.8975C167.38 23.8975 167.266 23.8505 167.172 23.7565C167.096 23.6813 167.059 23.5779 167.059 23.4463V15.9452L159.612 4.07304C159.556 3.96024 159.527 3.85684 159.527 3.76284C159.527 3.59364 159.584 3.46204 159.697 3.36804C159.811 3.25524 159.952 3.19884 160.122 3.19884H162.274C162.444 3.19884 162.557 3.26464 162.614 3.39624L169.126 13.7456L169.862 12.5894C171.598 9.8634 172.863 7.85181 173.656 6.55462C174.449 5.25743 175.034 4.21404 175.411 3.42444C175.506 3.27404 175.628 3.19884 175.779 3.19884H176.883C177.072 3.19884 177.223 3.25524 177.336 3.36804C177.45 3.46204 177.506 3.59364 177.506 3.76284C177.506 3.93204 177.459 4.07304 177.365 4.18584C176.648 5.12583 175.732 6.44182 174.618 8.13381C173.524 9.8258 171.985 12.2416 170.003 15.3812V23.4463C170.003 23.5779 169.956 23.6813 169.862 23.7565C169.786 23.8505 169.682 23.8975 169.55 23.8975H167.512Z" fill="white"/>
<path d="M122.914 51.9995C121.621 51.975 120.489 51.6684 119.516 51.0799C118.556 50.4914 117.811 49.6699 117.282 48.6155C116.765 47.5611 116.506 46.3473 116.506 44.9741C116.506 43.6009 116.765 42.387 117.282 41.3326C117.811 40.2782 118.556 39.4567 119.516 38.8682C120.489 38.2797 121.621 37.9731 122.914 37.9486C123.899 37.9364 124.828 38.1509 125.702 38.5923C126.576 39.0215 127.315 39.6345 127.918 40.4314C127.955 40.4805 127.973 40.5295 127.973 40.5786C127.973 40.6644 127.936 40.7441 127.862 40.8177L127.29 41.3326C127.204 41.3939 127.13 41.4246 127.068 41.4246C126.933 41.4246 126.828 41.351 126.755 41.2039C126.016 39.6835 124.797 38.9234 123.098 38.9234C122.175 38.9234 121.35 39.1747 120.624 39.6774C119.91 40.1801 119.356 40.8912 118.962 41.8108C118.568 42.7303 118.371 43.7848 118.371 44.9741C118.371 46.1634 118.568 47.2178 118.962 48.1373C119.356 49.0569 119.91 49.768 120.624 50.2707C121.35 50.7734 122.175 51.0248 123.098 51.0248C124.797 51.0248 126.016 50.2646 126.755 48.7443C126.828 48.5971 126.933 48.5236 127.068 48.5236C127.13 48.5236 127.204 48.5542 127.29 48.6155L127.862 49.1305C127.936 49.204 127.973 49.2837 127.973 49.3696C127.973 49.4063 127.955 49.4554 127.918 49.5167C127.315 50.3136 126.576 50.9328 125.702 51.3742C124.828 51.8033 123.899 52.0117 122.914 51.9995Z" fill="white"/>
<path d="M134.078 51.7236C133.991 51.7236 133.918 51.693 133.856 51.6317C133.807 51.5826 133.782 51.5152 133.782 51.4294V38.5188C133.782 38.4329 133.807 38.3655 133.856 38.3165C133.918 38.2552 133.991 38.2245 134.078 38.2245H135.407C135.493 38.2245 135.561 38.2552 135.61 38.3165C135.672 38.3655 135.703 38.4329 135.703 38.5188V50.7305C138.755 50.7305 141.224 50.6385 143.107 50.4546H143.144C143.23 50.4546 143.304 50.4853 143.366 50.5466C143.427 50.6079 143.458 50.6815 143.458 50.7673V51.4294C143.458 51.5152 143.427 51.5826 143.366 51.6317C143.316 51.693 143.249 51.7236 143.163 51.7236H134.078Z" fill="white"/>
<path d="M158.499 38.2245C158.598 38.2245 158.678 38.249 158.74 38.2981C158.801 38.3348 158.826 38.3839 158.813 38.4452C158.678 40.2475 158.61 42.479 158.61 45.1396V46.5373C158.598 48.2661 158.167 49.6086 157.318 50.565C156.468 51.5213 155.293 51.9995 153.791 51.9995C152.744 51.9995 151.827 51.7788 151.04 51.3374C150.264 50.896 149.661 50.2646 149.23 49.4431C148.799 48.6094 148.577 47.6347 148.565 46.5189V38.5188C148.565 38.4329 148.59 38.3655 148.639 38.3165C148.701 38.2552 148.774 38.2245 148.861 38.2245H150.19C150.276 38.2245 150.344 38.2552 150.393 38.3165C150.455 38.3655 150.486 38.4329 150.486 38.5188V46.4086C150.486 48.027 150.756 49.1979 151.298 49.9213C151.84 50.6447 152.72 51.0064 153.939 51.0064C155.096 51.0064 155.994 50.6018 156.634 49.7925C157.287 48.9833 157.613 47.8553 157.613 46.4086V45.1764C157.613 42.528 157.545 40.3211 157.41 38.5555C157.41 38.4575 157.441 38.3778 157.502 38.3165C157.564 38.2552 157.638 38.2245 157.724 38.2245H158.499Z" fill="white"/>
<path d="M173.114 44.8085C173.902 45.0905 174.517 45.5135 174.96 46.0775C175.404 46.6415 175.625 47.2975 175.625 48.0454C175.625 49.1856 175.219 50.0868 174.406 50.7489C173.594 51.3987 172.486 51.7236 171.083 51.7236H165.285C165.198 51.7236 165.125 51.693 165.063 51.6317C165.014 51.5826 164.989 51.5152 164.989 51.4294V38.5188C164.989 38.4329 165.014 38.3655 165.063 38.3165C165.125 38.2552 165.198 38.2245 165.285 38.2245H170.27C171.76 38.2368 172.923 38.5555 173.76 39.1808C174.61 39.7939 175.034 40.6399 175.034 41.7188C175.034 42.3809 174.868 42.9817 174.536 43.5212C174.203 44.0484 173.729 44.4775 173.114 44.8085ZM166.91 44.4959H170.289C171.212 44.4959 171.914 44.2568 172.394 43.7786C172.874 43.2882 173.114 42.5771 173.114 41.6453C173.114 40.7993 172.88 40.1862 172.412 39.8061C171.957 39.4138 171.23 39.2176 170.233 39.2176H166.91V44.4959ZM171.064 50.7305C171.975 50.7305 172.646 50.5159 173.077 50.0868C173.508 49.6454 173.723 48.9649 173.723 48.0454C173.723 47.5795 173.6 47.1503 173.354 46.758C173.12 46.3534 172.8 46.0346 172.394 45.8017C171.987 45.5687 171.544 45.4522 171.064 45.4522H166.91V50.7305H171.064Z" fill="white"/>
<path d="M48.63 1.47129C48.63 2.28387 47.9687 2.94259 47.1528 2.94259C46.337 2.94259 45.6756 2.28387 45.6756 1.47129C45.6756 0.658721 46.337 0 47.1528 0C47.9687 0 48.63 0.658721 48.63 1.47129Z" fill="white"/>
</svg>
