<svg width="225" height="38" viewBox="0 0 225 38" fill="none" xmlns="http://www.w3.org/2000/svg">
<g opacity="0.3">
<path d="M152.656 8.69605H158.64V9.70405H152.656V13.992H159.392V15H151.472V3.80005H159.2V4.80805H152.656V8.69605Z" fill="white"/>
<path d="M163.477 10.04L165.669 6.87205H166.933L164.133 10.76L167.189 15H165.893L163.477 11.464L161.061 15H159.781L162.837 10.76L160.037 6.87205H161.285L163.477 10.04Z" fill="white"/>
<path d="M174.243 12.1521H175.299C175.203 13.1227 174.851 13.9121 174.243 14.5201C173.913 14.8507 173.561 15.064 173.187 15.16C172.825 15.2667 172.393 15.32 171.891 15.32C170.761 15.32 169.886 15.0214 169.267 14.424C168.446 13.6347 168.035 12.4454 168.035 10.856C168.035 9.43738 168.382 8.35472 169.075 7.60805C169.694 6.90405 170.611 6.55205 171.827 6.55205C172.894 6.55205 173.721 6.83472 174.307 7.40005C174.809 7.90138 175.113 8.54138 175.219 9.32005H174.163C174.11 8.81872 173.923 8.39205 173.603 8.04005C173.198 7.58138 172.633 7.35205 171.907 7.35205C171.15 7.35205 170.531 7.59205 170.051 8.07205C169.486 8.63738 169.203 9.55472 169.203 10.824C169.203 12.1787 169.529 13.1814 170.179 13.832C170.638 14.2907 171.214 14.5201 171.907 14.5201C172.601 14.5201 173.139 14.3174 173.523 13.912C173.95 13.4534 174.19 12.8667 174.243 12.1521Z" fill="white"/>
<path d="M177.201 3.80005H178.305V15H177.201V3.80005Z" fill="white"/>
<path d="M187.37 15H186.266V13.832H186.234C185.936 14.3227 185.584 14.68 185.178 14.904C184.73 15.1814 184.144 15.32 183.418 15.32C182.618 15.32 181.989 15.0907 181.53 14.632C181.061 14.1734 180.826 13.416 180.826 12.36V6.87205H181.93V11.928C181.93 12.4614 181.962 12.8934 182.026 13.224C182.09 13.544 182.234 13.816 182.458 14.04C182.778 14.36 183.205 14.5201 183.738 14.5201C184.442 14.5201 185.045 14.264 185.546 13.752C186.026 13.24 186.266 12.4614 186.266 11.416V6.87205H187.37V15Z" fill="white"/>
<path d="M189.28 12.632H190.4C190.4 13.176 190.587 13.624 190.96 13.976C191.323 14.3387 191.91 14.5201 192.72 14.5201C193.382 14.5201 193.888 14.376 194.24 14.088C194.603 13.7894 194.784 13.368 194.784 12.824C194.784 12.44 194.64 12.1254 194.352 11.88C194.128 11.6774 193.68 11.5014 193.008 11.352L192.112 11.16C191.099 10.9254 190.438 10.6534 190.128 10.344C189.766 9.98138 189.584 9.51205 189.584 8.93605C189.584 8.13605 189.92 7.50138 190.592 7.03205C191.083 6.71205 191.755 6.55205 192.608 6.55205C193.643 6.55205 194.443 6.81872 195.008 7.35205C195.456 7.77872 195.686 8.32272 195.696 8.98405H194.624C194.624 8.51472 194.475 8.13072 194.176 7.83205C193.835 7.51205 193.307 7.35205 192.592 7.35205C191.92 7.35205 191.424 7.51205 191.104 7.83205C190.859 8.07738 190.736 8.40805 190.736 8.82405C190.736 9.19738 190.875 9.50672 191.152 9.75205C191.387 9.94405 191.819 10.12 192.448 10.28L193.296 10.472C193.35 10.4827 193.446 10.5094 193.584 10.552C193.734 10.584 193.835 10.6107 193.888 10.632C193.952 10.6427 194.043 10.6694 194.16 10.712C194.288 10.744 194.39 10.776 194.464 10.808C194.539 10.8294 194.624 10.8614 194.72 10.904C194.816 10.936 194.902 10.9787 194.976 11.032C195.062 11.0747 195.136 11.1227 195.2 11.176C195.68 11.528 195.92 12.0454 195.92 12.728C195.92 13.6134 195.6 14.2854 194.96 14.7441C194.448 15.1281 193.686 15.32 192.672 15.32C191.51 15.32 190.64 15.032 190.064 14.456C189.627 13.9867 189.366 13.3787 189.28 12.632Z" fill="white"/>
<path d="M197.794 6.87205H198.898V15H197.794V6.87205ZM197.778 5.14405V3.80005H198.914V5.14405H197.778Z" fill="white"/>
<path d="M203.789 13.88L206.237 6.87205H207.453L204.429 15H203.149L200.125 6.87205H201.325L203.789 13.88Z" fill="white"/>
<path d="M214.669 12.648H215.725C215.586 13.3094 215.293 13.8854 214.845 14.376C214.237 15.0054 213.373 15.32 212.253 15.32C211.08 15.32 210.162 15.0054 209.501 14.376C208.701 13.5974 208.301 12.44 208.301 10.904C208.301 9.43205 208.674 8.32272 209.421 7.57605C210.104 6.89338 211.021 6.55205 212.173 6.55205C213.282 6.55205 214.146 6.87205 214.765 7.51205C215.17 7.92805 215.437 8.41872 215.565 8.98405C215.704 9.54938 215.789 10.2694 215.821 11.144H209.453C209.496 12.296 209.784 13.1547 210.317 13.72C210.797 14.2534 211.458 14.5201 212.301 14.5201C212.994 14.5201 213.554 14.3174 213.981 13.912C214.269 13.656 214.498 13.2347 214.669 12.648ZM212.157 7.35205C211.325 7.35205 210.674 7.61338 210.205 8.13605C209.704 8.71205 209.453 9.44805 209.453 10.344H214.653C214.653 9.97072 214.584 9.54938 214.445 9.08005C214.306 8.61072 214.114 8.25338 213.869 8.00805C213.453 7.57072 212.882 7.35205 212.157 7.35205Z" fill="white"/>
<path d="M152.528 30.784L151.328 34H150.048L154.304 22.8H155.632L159.888 34H158.592L157.408 30.784H152.528ZM152.864 29.7761H157.056L154.96 23.9361L152.864 29.7761Z" fill="white"/>
<path d="M165.425 25.712V26.608H165.265C164.305 26.608 163.585 26.864 163.105 27.376C162.785 27.696 162.572 28.048 162.465 28.432C162.359 28.8054 162.305 29.264 162.305 29.808V34H161.201V25.872H162.305V27.488H162.337C162.54 26.976 162.876 26.5547 163.345 26.224C163.847 25.8827 164.481 25.712 165.249 25.712H165.425Z" fill="white"/>
<path d="M166.19 25.872H167.71V23.44H168.814V25.872H170.558V26.672H168.814V32.56C168.814 32.8374 168.867 33.04 168.974 33.168C169.102 33.3067 169.315 33.376 169.614 33.376C169.902 33.376 170.216 33.3174 170.558 33.2001V34C170.174 34.1494 169.747 34.2241 169.278 34.2241C168.68 34.2241 168.275 34.0907 168.062 33.824C167.827 33.5574 167.71 33.1414 167.71 32.576V26.672H166.19V25.872Z" fill="white"/>
<path d="M171.885 30.368V29.104H176.109V30.368H171.885Z" fill="white"/>
<path d="M179.89 27.696H185.874V28.704H179.89V32.9921H186.626V34H178.706V22.8H186.434V23.808H179.89V27.696Z" fill="white"/>
<path d="M190.679 32.88L193.127 25.872H194.343L191.319 34H190.039L187.015 25.872H188.215L190.679 32.88Z" fill="white"/>
<path d="M201.56 31.6481H202.616C202.477 32.3094 202.184 32.8854 201.736 33.376C201.128 34.0054 200.264 34.32 199.144 34.32C197.97 34.32 197.053 34.0054 196.392 33.376C195.592 32.5974 195.192 31.44 195.192 29.904C195.192 28.432 195.565 27.3227 196.312 26.576C196.994 25.8934 197.912 25.552 199.064 25.552C200.173 25.552 201.037 25.872 201.656 26.512C202.061 26.928 202.328 27.4187 202.456 27.984C202.594 28.5494 202.68 29.2694 202.712 30.144H196.344C196.386 31.296 196.674 32.1547 197.208 32.72C197.688 33.2534 198.349 33.5201 199.192 33.5201C199.885 33.5201 200.445 33.3174 200.872 32.9121C201.16 32.6561 201.389 32.2347 201.56 31.6481ZM199.048 26.352C198.216 26.352 197.565 26.6134 197.096 27.136C196.594 27.712 196.344 28.448 196.344 29.344H201.544C201.544 28.9707 201.474 28.5494 201.336 28.08C201.197 27.6107 201.005 27.2534 200.76 27.008C200.344 26.5707 199.773 26.352 199.048 26.352Z" fill="white"/>
<path d="M204.826 25.872H205.93V27.056C206.197 26.6294 206.57 26.272 207.05 25.984C207.552 25.696 208.085 25.552 208.65 25.552C209.504 25.552 210.165 25.7867 210.634 26.2561C211.125 26.7467 211.37 27.4987 211.37 28.512V34H210.266V28.6721C210.266 27.7334 210.069 27.0987 209.674 26.768C209.344 26.4907 208.928 26.352 208.426 26.352C207.786 26.352 207.232 26.5707 206.762 27.008C206.208 27.5627 205.93 28.3787 205.93 29.456V34H204.826V25.872Z" fill="white"/>
<path d="M212.736 25.872H214.256V23.44H215.36V25.872H217.104V26.672H215.36V32.56C215.36 32.8374 215.414 33.04 215.52 33.168C215.648 33.3067 215.862 33.376 216.16 33.376C216.448 33.376 216.763 33.3174 217.104 33.2001V34C216.72 34.1494 216.294 34.2241 215.824 34.2241C215.227 34.2241 214.822 34.0907 214.608 33.824C214.374 33.5574 214.256 33.1414 214.256 32.576V26.672H212.736V25.872Z" fill="white"/>
<path d="M217.952 31.632H219.072C219.072 32.176 219.259 32.624 219.632 32.976C219.995 33.3387 220.582 33.5201 221.392 33.5201C222.054 33.5201 222.56 33.376 222.912 33.088C223.275 32.7894 223.456 32.368 223.456 31.824C223.456 31.44 223.312 31.1254 223.024 30.88C222.8 30.6774 222.352 30.5014 221.68 30.352L220.784 30.16C219.771 29.9254 219.11 29.6534 218.8 29.344C218.438 28.9814 218.256 28.5121 218.256 27.9361C218.256 27.1361 218.592 26.5014 219.264 26.032C219.755 25.712 220.427 25.552 221.28 25.552C222.315 25.552 223.115 25.8187 223.68 26.352C224.128 26.7787 224.358 27.3227 224.368 27.984H223.296C223.296 27.5147 223.147 27.1307 222.848 26.8321C222.507 26.5121 221.979 26.352 221.264 26.352C220.592 26.352 220.096 26.5121 219.776 26.8321C219.531 27.0774 219.408 27.408 219.408 27.824C219.408 28.1974 219.547 28.5067 219.824 28.752C220.059 28.944 220.491 29.12 221.12 29.28L221.968 29.472C222.022 29.4827 222.118 29.5094 222.256 29.552C222.406 29.584 222.507 29.6107 222.56 29.632C222.624 29.6427 222.715 29.6694 222.832 29.712C222.96 29.744 223.062 29.776 223.136 29.808C223.211 29.8294 223.296 29.8614 223.392 29.904C223.488 29.936 223.574 29.9787 223.648 30.032C223.734 30.0747 223.808 30.1227 223.872 30.1761C224.352 30.5281 224.592 31.0454 224.592 31.7281C224.592 32.6134 224.272 33.2854 223.632 33.744C223.12 34.128 222.358 34.32 221.344 34.32C220.182 34.32 219.312 34.032 218.736 33.456C218.299 32.9867 218.038 32.3787 217.952 31.632Z" fill="white"/>
</g>
<path d="M5.18395 17.7933C4.02274 17.7933 2.97213 17.5254 2.03211 16.9896C1.10591 16.4538 0.435452 15.7394 0.0207358 14.8464C0.00691194 14.8189 0 14.7777 0 14.7228C0 14.5579 0.0691193 14.4549 0.207358 14.4136L1.05753 14.0633C1.14047 14.0358 1.19576 14.0221 1.22341 14.0221C1.30636 14.0221 1.38239 14.0496 1.45151 14.1045C1.52063 14.1595 1.5621 14.235 1.57592 14.3312C1.75563 15.0593 2.17035 15.6432 2.82007 16.0829C3.48361 16.5087 4.27849 16.7217 5.20468 16.7217C6.15853 16.7217 6.91885 16.4881 7.48562 16.021C8.0524 15.5402 8.33579 14.9014 8.33579 14.1045C8.33579 13.4039 8.1699 12.8406 7.83813 12.4147C7.50636 11.9751 7.08473 11.6385 6.57325 11.4049C6.07559 11.1576 5.37748 10.8829 4.47893 10.5806C3.55273 10.2647 2.79242 9.96241 2.19799 9.6739C1.61739 9.3854 1.11973 8.97325 0.705017 8.43745C0.304125 7.88792 0.103679 7.18726 0.103679 6.33548C0.103679 5.51118 0.317949 4.77618 0.746489 4.13047C1.18885 3.47103 1.7971 2.95584 2.57124 2.58491C3.34538 2.21397 4.22319 2.0285 5.20468 2.0285C6.35207 2.0285 7.36812 2.2964 8.25285 2.8322C9.1514 3.35426 9.79421 4.06178 10.1813 4.95478C10.1951 4.98225 10.202 5.0166 10.202 5.05781C10.202 5.1952 10.1329 5.29824 9.99465 5.36693L9.14449 5.71726C9.08919 5.74473 9.04081 5.75847 8.99934 5.75847C8.91639 5.75847 8.84036 5.73099 8.77124 5.67604C8.71595 5.60735 8.67447 5.52492 8.64683 5.42875C8.48094 4.71435 8.08696 4.14421 7.46489 3.71832C6.84281 3.29243 6.08941 3.07949 5.20468 3.07949C4.26466 3.07949 3.50435 3.31991 2.92375 3.80075C2.34315 4.2816 2.05284 4.91356 2.05284 5.69665C2.05284 6.24618 2.19799 6.69955 2.4883 7.05675C2.7786 7.40021 3.15184 7.68184 3.60803 7.90166C4.07804 8.12147 4.72085 8.36876 5.53646 8.64353C6.5456 8.98699 7.36812 9.32358 8.00402 9.6533C8.63992 9.98302 9.18596 10.4639 9.64215 11.0958C10.0983 11.7278 10.3264 12.5384 10.3264 13.5275C10.3264 14.3381 10.1052 15.0731 9.66288 15.7325C9.22052 16.3782 8.60536 16.8797 7.8174 17.2369C7.04326 17.6078 6.16544 17.7933 5.18395 17.7933Z" fill="white"/>
<path d="M19.4772 17.4636C19.3805 17.4636 19.2975 17.4292 19.2284 17.3605C19.1731 17.3056 19.1455 17.23 19.1455 17.1338V2.66734C19.1455 2.57117 19.1731 2.49561 19.2284 2.44065C19.2975 2.37196 19.3805 2.33762 19.4772 2.33762H29.6792C29.776 2.33762 29.852 2.37196 29.9073 2.44065C29.9765 2.49561 30.011 2.57117 30.011 2.66734V3.40921C30.011 3.51912 29.9695 3.60842 29.8866 3.67711C29.8175 3.7458 29.7276 3.77328 29.617 3.75954C27.502 3.55346 24.7303 3.45042 21.302 3.45042V9.34419C22.4632 9.34419 23.4032 9.33045 24.122 9.30297C24.8547 9.27549 25.615 9.22054 26.403 9.13811H26.4445C26.5412 9.13811 26.6242 9.17245 26.6933 9.24115C26.7624 9.30984 26.797 9.39227 26.797 9.48844V10.3127C26.797 10.4226 26.7555 10.5119 26.6726 10.5806C26.6034 10.6493 26.5136 10.6768 26.403 10.6631C25.615 10.5806 24.8547 10.5257 24.122 10.4982C23.4032 10.4707 22.4632 10.457 21.302 10.457V16.3508C24.7303 16.3508 27.502 16.2477 29.617 16.0416H29.6585C29.7553 16.0416 29.8382 16.076 29.9073 16.1447C29.9765 16.2134 30.011 16.2958 30.011 16.392V17.1338C30.011 17.23 29.9765 17.3056 29.9073 17.3605C29.852 17.4292 29.776 17.4636 29.6792 17.4636H19.4772Z" fill="white"/>
<path d="M39.2248 17.4636C39.1281 17.4636 39.0451 17.4292 38.976 17.3605C38.9207 17.3056 38.8931 17.23 38.8931 17.1338V2.66734C38.8931 2.57117 38.9207 2.49561 38.976 2.44065C39.0451 2.37196 39.1281 2.33762 39.2248 2.33762H40.7178C40.8146 2.33762 40.8906 2.37196 40.9459 2.44065C41.015 2.49561 41.0496 2.57117 41.0496 2.66734V16.3508C44.4779 16.3508 47.2496 16.2477 49.3646 16.0416H49.4061C49.5029 16.0416 49.5858 16.076 49.6549 16.1447C49.7241 16.2134 49.7586 16.2958 49.7586 16.392V17.1338C49.7586 17.23 49.7241 17.3056 49.6549 17.3605C49.5997 17.4292 49.5236 17.4636 49.4269 17.4636H39.2248Z" fill="white"/>
<path d="M58.3042 17.4636C58.2074 17.4636 58.1245 17.4292 58.0554 17.3605C58.0001 17.3056 57.9724 17.23 57.9724 17.1338V2.66734C57.9724 2.57117 58.0001 2.49561 58.0554 2.44065C58.1245 2.37196 58.2074 2.33762 58.3042 2.33762H68.5062C68.603 2.33762 68.679 2.37196 68.7343 2.44065C68.8034 2.49561 68.838 2.57117 68.838 2.66734V3.40921C68.838 3.51912 68.7965 3.60842 68.7136 3.67711C68.6444 3.7458 68.5546 3.77328 68.444 3.75954C66.329 3.55346 63.5573 3.45042 60.129 3.45042V9.34419C61.2902 9.34419 62.2302 9.33045 62.949 9.30297C63.6817 9.27549 64.442 9.22054 65.23 9.13811H65.2714C65.3682 9.13811 65.4511 9.17245 65.5203 9.24115C65.5894 9.30984 65.6239 9.39227 65.6239 9.48844V10.3127C65.6239 10.4226 65.5825 10.5119 65.4995 10.5806C65.4304 10.6493 65.3405 10.6768 65.23 10.6631C64.442 10.5806 63.6817 10.5257 62.949 10.4982C62.2302 10.4707 61.2902 10.457 60.129 10.457V16.3508C63.5573 16.3508 66.329 16.2477 68.444 16.0416H68.4855C68.5822 16.0416 68.6652 16.076 68.7343 16.1447C68.8034 16.2134 68.838 16.2958 68.838 16.392V17.1338C68.838 17.23 68.8034 17.3056 68.7343 17.3605C68.679 17.4292 68.603 17.4636 68.5062 17.4636H58.3042Z" fill="white"/>
<path d="M86.8438 9.71512C87.7285 10.0311 88.4197 10.5051 88.9174 11.137C89.415 11.769 89.6639 12.504 89.6639 13.3421C89.6639 14.6197 89.2077 15.6295 88.2953 16.3714C87.3829 17.0995 86.1388 17.4636 84.5629 17.4636H78.0518C77.955 17.4636 77.8721 17.4292 77.803 17.3605C77.7477 17.3056 77.72 17.23 77.72 17.1338V2.66734C77.72 2.57117 77.7477 2.49561 77.803 2.44065C77.8721 2.37196 77.955 2.33762 78.0518 2.33762H83.6505C85.3232 2.35136 86.6295 2.70855 87.5695 3.40921C88.5234 4.09613 89.0003 5.04408 89.0003 6.25305C89.0003 6.99492 88.8137 7.6681 88.4404 8.27259C88.0672 8.86334 87.535 9.34418 86.8438 9.71512ZM79.8766 9.36479H83.6712C84.708 9.36479 85.496 9.09689 86.0351 8.5611C86.5742 8.01156 86.8438 7.21474 86.8438 6.17062C86.8438 5.22267 86.5811 4.53576 86.0558 4.10987C85.5443 3.67024 84.7287 3.45042 83.609 3.45042H79.8766V9.36479ZM84.5421 16.3508C85.5651 16.3508 86.3185 16.1103 86.8023 15.6295C87.2861 15.1349 87.5281 14.3724 87.5281 13.3421C87.5281 12.82 87.3898 12.3392 87.1133 11.8995C86.8507 11.4462 86.4913 11.089 86.0351 10.8279C85.5789 10.5669 85.0812 10.4364 84.5421 10.4364H79.8766V16.3508H84.5421Z" fill="white"/>
<path d="M98.6094 17.4636C98.5126 17.4636 98.4297 17.4292 98.3606 17.3605C98.3053 17.3056 98.2776 17.23 98.2776 17.1338V2.66734C98.2776 2.57117 98.3053 2.49561 98.3606 2.44065C98.4297 2.37196 98.5126 2.33762 98.6094 2.33762H104.27C105.321 2.33762 106.24 2.52995 107.028 2.91463C107.83 3.28556 108.452 3.81449 108.894 4.50141C109.337 5.17459 109.558 5.95768 109.558 6.85067C109.558 7.90852 109.247 8.81526 108.625 9.57087C108.017 10.3265 107.173 10.8485 106.095 11.137L109.496 16.8453C109.537 16.9278 109.558 17.0033 109.558 17.072C109.558 17.1819 109.516 17.2712 109.433 17.3399C109.364 17.4223 109.268 17.4636 109.143 17.4636H107.505C107.394 17.4636 107.312 17.4155 107.256 17.3193L103.71 11.3637H100.434V17.1338C100.434 17.23 100.4 17.3056 100.33 17.3605C100.275 17.4292 100.199 17.4636 100.102 17.4636H98.6094ZM104.229 10.2509C105.279 10.2509 106.074 9.96928 106.613 9.40601C107.153 8.829 107.422 7.97722 107.422 6.85067C107.422 5.72412 107.153 4.87922 106.613 4.31594C106.074 3.73893 105.279 3.45042 104.229 3.45042H100.434V10.2509H104.229Z" fill="white"/>
<path d="M122.68 17.4636C122.583 17.4636 122.501 17.4292 122.431 17.3605C122.376 17.3056 122.348 17.23 122.348 17.1338V11.6522L116.895 2.97645C116.854 2.89402 116.833 2.81846 116.833 2.74977C116.833 2.62612 116.874 2.52995 116.957 2.46126C117.04 2.37883 117.144 2.33762 117.268 2.33762H118.844C118.969 2.33762 119.051 2.3857 119.093 2.48187L123.862 10.0448L124.401 9.19993C125.673 7.20787 126.599 5.73786 127.18 4.78992C127.761 3.84197 128.189 3.07949 128.466 2.50248C128.535 2.39257 128.625 2.33762 128.735 2.33762H129.544C129.682 2.33762 129.793 2.37883 129.876 2.46126C129.959 2.52995 130 2.62612 130 2.74977C130 2.87341 129.965 2.97645 129.896 3.05888C129.371 3.7458 128.701 4.70749 127.885 5.94394C127.083 7.18039 125.957 8.94577 124.505 11.2401V17.1338C124.505 17.23 124.47 17.3056 124.401 17.3605C124.346 17.4292 124.27 17.4636 124.173 17.4636H122.68Z" fill="white"/>
<path d="M90.0181 37.9996C89.0715 37.9817 88.2421 37.7577 87.5299 37.3276C86.8266 36.8976 86.2812 36.2973 85.8935 35.5267C85.5149 34.7562 85.3255 33.8692 85.3255 32.8657C85.3255 31.8622 85.5149 30.9751 85.8935 30.2046C86.2812 29.4341 86.8266 28.8337 87.5299 28.4037C88.2421 27.9736 89.0715 27.7496 90.0181 27.7317C90.7394 27.7227 91.4201 27.8795 92.0602 28.2021C92.7003 28.5157 93.2412 28.9637 93.683 29.5461C93.71 29.5819 93.7235 29.6177 93.7235 29.6536C93.7235 29.7163 93.6965 29.7745 93.6424 29.8283L93.2232 30.2046C93.1601 30.2494 93.106 30.2718 93.0609 30.2718C92.9617 30.2718 92.8851 30.218 92.831 30.1105C92.2901 28.9995 91.3975 28.444 90.1534 28.444C89.4772 28.444 88.8732 28.6277 88.3413 28.995C87.8184 29.3624 87.4126 29.882 87.1241 30.554C86.8356 31.226 86.6914 31.9966 86.6914 32.8657C86.6914 33.7348 86.8356 34.5053 87.1241 35.1773C87.4126 35.8493 87.8184 36.3689 88.3413 36.7363C88.8732 37.1036 89.4772 37.2873 90.1534 37.2873C91.3975 37.2873 92.2901 36.7318 92.831 35.6208C92.8851 35.5133 92.9617 35.4595 93.0609 35.4595C93.106 35.4595 93.1601 35.4819 93.2232 35.5267L93.6424 35.903C93.6965 35.9568 93.7235 36.015 93.7235 36.0778C93.7235 36.1046 93.71 36.1405 93.683 36.1853C93.2412 36.7677 92.7003 37.2201 92.0602 37.5427C91.4201 37.8563 90.7394 38.0086 90.0181 37.9996Z" fill="white"/>
<path d="M98.1942 37.798C98.1311 37.798 98.077 37.7756 98.0319 37.7308C97.9958 37.695 97.9778 37.6457 97.9778 37.583V28.1483C97.9778 28.0856 97.9958 28.0363 98.0319 28.0005C98.077 27.9557 98.1311 27.9333 98.1942 27.9333H99.1678C99.231 27.9333 99.2805 27.9557 99.3166 28.0005C99.3617 28.0363 99.3842 28.0856 99.3842 28.1483V37.0723C101.62 37.0723 103.428 37.0051 104.807 36.8707H104.834C104.897 36.8707 104.951 36.8931 104.996 36.9379C105.041 36.9827 105.064 37.0364 105.064 37.0992V37.583C105.064 37.6457 105.041 37.695 104.996 37.7308C104.96 37.7756 104.911 37.798 104.848 37.798H98.1942Z" fill="white"/>
<path d="M116.08 27.9333C116.152 27.9333 116.211 27.9512 116.256 27.987C116.301 28.0139 116.319 28.0498 116.31 28.0946C116.211 29.4117 116.161 31.0423 116.161 32.9866V34.008C116.152 35.2714 115.837 36.2525 115.214 36.9513C114.592 37.6502 113.731 37.9996 112.632 37.9996C111.865 37.9996 111.194 37.8384 110.617 37.5158C110.049 37.1932 109.607 36.7318 109.291 36.1315C108.976 35.5222 108.813 34.8099 108.804 33.9946V28.1483C108.804 28.0856 108.822 28.0363 108.858 28.0005C108.904 27.9557 108.958 27.9333 109.021 27.9333H109.994C110.058 27.9333 110.107 27.9557 110.143 28.0005C110.188 28.0363 110.211 28.0856 110.211 28.1483V33.914C110.211 35.0967 110.409 35.9523 110.806 36.4809C111.203 37.0096 111.847 37.2739 112.74 37.2739C113.587 37.2739 114.245 36.9782 114.714 36.3869C115.192 35.7955 115.431 34.9712 115.431 33.914V33.0135C115.431 31.0782 115.381 29.4654 115.282 28.1752C115.282 28.1035 115.305 28.0453 115.35 28.0005C115.395 27.9557 115.449 27.9333 115.512 27.9333H116.08Z" fill="white"/>
<path d="M126.783 32.7447C127.36 32.9508 127.811 33.2599 128.135 33.672C128.46 34.0842 128.622 34.5635 128.622 35.1101C128.622 35.9434 128.325 36.6019 127.73 37.0857C127.135 37.5606 126.323 37.798 125.295 37.798H121.049C120.986 37.798 120.932 37.7756 120.887 37.7308C120.851 37.695 120.833 37.6457 120.833 37.583V28.1483C120.833 28.0856 120.851 28.0363 120.887 28.0005C120.932 27.9557 120.986 27.9333 121.049 27.9333H124.7C125.791 27.9422 126.643 28.1752 127.256 28.6322C127.878 29.0801 128.189 29.6984 128.189 30.4868C128.189 30.9707 128.068 31.4097 127.824 31.8039C127.581 32.1892 127.234 32.5028 126.783 32.7447ZM122.239 32.5162H124.714C125.39 32.5162 125.904 32.3415 126.256 31.9921C126.607 31.6337 126.783 31.114 126.783 30.4331C126.783 29.8148 126.612 29.3669 126.269 29.0891C125.936 28.8024 125.404 28.659 124.673 28.659H122.239V32.5162ZM125.282 37.0723C125.949 37.0723 126.44 36.9155 126.756 36.6019C127.072 36.2793 127.229 35.7821 127.229 35.1101C127.229 34.7696 127.139 34.456 126.959 34.1693C126.788 33.8736 126.553 33.6407 126.256 33.4704C125.958 33.3002 125.634 33.2151 125.282 33.2151H122.239V37.0723H125.282Z" fill="white"/>
<path d="M35.6151 1.07518C35.6151 1.66898 35.1307 2.15035 34.5332 2.15035C33.9357 2.15035 33.4513 1.66898 33.4513 1.07518C33.4513 0.481373 33.9357 0 34.5332 0C35.1307 0 35.6151 0.481373 35.6151 1.07518Z" fill="white"/>
</svg>
