<svg width="350" height="85" viewBox="0 0 350 85" fill="none" xmlns="http://www.w3.org/2000/svg">
<path d="M332.869 0.580848C127.46 -0.193644 222.54 -0.193602 17.1311 0.58089C10.337 0.60708 3.85077 4.70496 2.94336 9.73121C-0.98111 31.5769 -0.98111 53.4226 2.94336 75.2693C3.85077 80.2956 10.337 84.393 17.1311 84.4192C222.54 85.1937 127.46 85.1936 332.869 84.4191C339.663 84.3929 346.149 80.2955 347.055 75.2692C350.982 53.4226 350.982 31.5769 347.055 9.73117C346.149 4.70492 339.663 0.607038 332.869 0.580848Z" fill="url(#paint0_linear_2_614)"/>
<path d="M332.869 0.580848C127.46 -0.193644 222.54 -0.193602 17.1311 0.58089C10.337 0.60708 3.85077 4.70496 2.94336 9.73121C-0.98111 31.5769 -0.98111 53.4226 2.94336 75.2693C3.85077 80.2956 10.337 84.393 17.1311 84.4192C222.54 85.1937 127.46 85.1936 332.869 84.4191C339.663 84.3929 346.149 80.2955 347.055 75.2692C350.982 53.4226 350.982 31.5769 347.055 9.73117C346.149 4.70492 339.663 0.607038 332.869 0.580848Z" fill="black" fill-opacity="0.06"/>
<defs>
<linearGradient id="paint0_linear_2_614" x1="55.8772" y1="-35.4987" x2="340.064" y2="91.3559" gradientUnits="userSpaceOnUse">
<stop stop-color="#FFC87C"/>
<stop offset="1" stop-color="#FCB75B"/>
</linearGradient>
</defs>
</svg>
