<svg width="280" height="76" viewBox="0 0 280 76" fill="none" xmlns="http://www.w3.org/2000/svg">
<g filter="url(#filter0_ii_2_568)">
<path d="M266.295 0.519346C101.968 -0.173141 178.032 -0.173103 13.7048 0.519384C8.26956 0.542801 3.0806 4.20679 2.35468 8.70084C-0.784912 28.2335 -0.784912 47.7661 2.35468 67.2996C3.0806 71.7937 8.26956 75.4572 13.7048 75.4807C178.032 76.1731 101.968 76.1731 266.295 75.4806C271.73 75.4572 276.919 71.7936 277.644 67.2996C280.785 47.7661 280.785 28.2334 277.644 8.70081C276.919 4.20675 271.73 0.542764 266.295 0.519346Z" fill="url(#paint0_linear_2_568)"/>
</g>
<defs>
<filter id="filter0_ii_2_568" x="0" y="-1" width="287" height="84" filterUnits="userSpaceOnUse" color-interpolation-filters="sRGB">
<feFlood flood-opacity="0" result="BackgroundImageFix"/>
<feBlend mode="normal" in="SourceGraphic" in2="BackgroundImageFix" result="shape"/>
<feColorMatrix in="SourceAlpha" type="matrix" values="0 0 0 0 0 0 0 0 0 0 0 0 0 0 0 0 0 0 127 0" result="hardAlpha"/>
<feOffset dx="7" dy="7"/>
<feGaussianBlur stdDeviation="12.5"/>
<feComposite in2="hardAlpha" operator="arithmetic" k2="-1" k3="1"/>
<feColorMatrix type="matrix" values="0 0 0 0 1 0 0 0 0 1 0 0 0 0 1 0 0 0 0.25 0"/>
<feBlend mode="normal" in2="shape" result="effect1_innerShadow_2_568"/>
<feColorMatrix in="SourceAlpha" type="matrix" values="0 0 0 0 0 0 0 0 0 0 0 0 0 0 0 0 0 0 127 0" result="hardAlpha"/>
<feOffset dy="-1"/>
<feGaussianBlur stdDeviation="2"/>
<feComposite in2="hardAlpha" operator="arithmetic" k2="-1" k3="1"/>
<feColorMatrix type="matrix" values="0 0 0 0 1 0 0 0 0 1 0 0 0 0 1 0 0 0 0.25 0"/>
<feBlend mode="normal" in2="effect1_innerShadow_2_568" result="effect2_innerShadow_2_568"/>
</filter>
<linearGradient id="paint0_linear_2_568" x1="280" y1="38" x2="0.000405254" y2="33.2262" gradientUnits="userSpaceOnUse">
<stop stop-color="#FFD194"/>
<stop offset="0.232292" stop-color="#FEC87F"/>
<stop offset="0.691084" stop-color="#FFE0B5"/>
<stop offset="1" stop-color="#FFBC62"/>
</linearGradient>
</defs>
</svg>
